{"title":"Projeto Thomaz Farkas 6 - Sergio Muniz","uid":5572891,"size":2618433504,"categoryP":"video","categoryS":"movies","magnet":"?xt=urn:btih:5e51a61ff6b7e5be623cf2ee09dcc85f6ba5d76d&amp;dn=Projeto+Thomaz+Farkas+6+-+Sergio+Muniz&amp;tr=udp%3A%2F%2Ftracker.openbittorrent.com%3A80&amp;tr=udp%3A%2F%2Fopen.demonii.com%3A1337&amp;tr=udp%3A%2F%2Ftracker.coppersurfer.tk%3A6969&amp;tr=udp%3A%2F%2Fexodus.desync.com%3A6969","seeders":3,"leechers":0,"uploader":"mfccorrea","files":9,"time":1274300819,"description":"Projeto Thomaz Farkas 6 - Sergio Muniz\n\nProject Thomaz Farkas is a collection of 39 documentaries produced by Thomas Farkas  in the 1960s and 1970s, featuring various cultural events of Brazil linked to the specific reality of each region. The documentaries were organized in a box containing seven discs, and include a short interview with the participation of renowned photographer, producer and documentary filmmaker, exposing a broad universe of Brazilian culture.\n\nThe Disc 6 contains the following documentaries:\n\nA CuÃƒÂ­ca (1978)\nAndiamo In'Merica (1980) - parte1\nAndiamo In'Merica (1980) - parte2\nBeste (1969)\nCheiro &amp; Gosto - O Provador de CafÃƒÂ© (1976)\nO Berimbau (1978)\nRastejador, S.M. (1969)\nUm a Um (1976)\n\nAll films have Portuguese audio, and no subtitles. There's a 300 dpi scan of the DVD cover included.\n\n     General\n      Complete name : Projeto Thomaz Farkas - Sergio Muniz.avi\n      Format : AVI\n      Format/Info : Audio Video Interleave\n      Format profile : OpenDML\n      File size : 2.44 GiB\n      Duration : 2h 58mn\n      Overall bit rate : 1 953 Kbps\n      Writing library : VirtualDub build 32593/release\n   Video #0\n      ID : 0\n      Format : MPEG-4 Visual\n      Format profile : AdvancedSimple@L5\n      Format settings, BVOP : Yes\n      Format settings, QPel : No\n      Format settings, GMC : No warppoints\n      Format settings, Matrix : Default (MPEG)\n      Muxing mode : Packed bitstream\n      Codec ID : XVID\n      Codec ID/Hint : XviD\n      Duration : 2h 58mn\n      Bit rate : 1 718 Kbps\n      Width : 640 pixels\n      Height : 464 pixels\n      Display aspect ratio : 1.379\n      Frame rate : 23.976 fps\n      Resolution : 24 bits\n      Colorimetry : 4:2:0\n      Scan type : Progressive\n      Bits/(Pixel*Frame) : 0.241\n      Stream size : 2.14 GiB (88%)\n      Writing library : XviD 1.2.0.dev47 (UTC 2006-11-01)\n   Audio #1\n      ID : 1\n      Format : AC-3\n      Format/Info : Audio Coding 3\n      Codec ID : 2000\n      Duration : 2h 58mn\n      Bit rate mode : Constant\n      Bit rate : 224 Kbps\n      Channel(s) : 2 channels\n      Channel positions : L R\n      Sampling rate : 48.0 KHz\n      Stream size : 286 MiB (11%)\n      Alignment : Split accross interleaves\n      Interleave, duration : 42 ms (1.00 video frame)\n      Interleave, preload duration : 500 ms\n\nAll films were ripped individually. The specs refer to the films assembled together.\n","torrent":{"xt":"urn:btih:5e51a61ff6b7e5be623cf2ee09dcc85f6ba5d76d","amp;dn":"Projeto+Thomaz+Farkas+6+-+Sergio+Muniz","amp;tr":["udp%3A%2F%2Ftracker.openbittorrent.com%3A80","udp%3A%2F%2Fopen.demonii.com%3A1337","udp%3A%2F%2Ftracker.coppersurfer.tk%3A6969","udp%3A%2F%2Fexodus.desync.com%3A6969"],"infoHash":"5e51a61ff6b7e5be623cf2ee09dcc85f6ba5d76d","infoHashBuffer":{"type":"Buffer","data":[94,81,166,31,246,183,229,190,98,60,242,238,9,220,200,95,107,165,215,109]},"announce":[],"urlList":[]}}